<?xml version="1.0" standalone="no"?>
<!DOCTYPE svg PUBLIC "-//W3C//DTD SVG 20010904//EN"
 "http://www.w3.org/TR/2001/REC-SVG-20010904/DTD/svg10.dtd">
<svg version="1.0" xmlns="http://www.w3.org/2000/svg"
 width="314.000000pt" height="235.000000pt" viewBox="0 0 314.000000 235.000000"
 preserveAspectRatio="xMidYMid meet">

<g transform="translate(0.000000,235.000000) scale(0.100000,-0.100000)"
fill="#000000" stroke="none">
<path d="M1512 2260 c-95 -34 -117 -51 -120 -94 -3 -31 -17 -56 -71 -120 -37
-45 -89 -98 -115 -120 -32 -26 -57 -58 -77 -101 -20 -42 -45 -75 -75 -101 -46
-37 -46 -37 -75 -20 -16 10 -38 15 -49 11 -16 -5 -20 0 -26 30 -3 19 -4 47 -1
61 3 19 -6 36 -40 74 -25 28 -48 50 -51 50 -4 -1 -24 -23 -44 -49 -36 -46 -38
-53 -38 -121 0 -71 -1 -72 -23 -66 -18 4 -31 -2 -52 -24 -24 -25 -28 -37 -26
-75 2 -43 0 -46 -29 -56 -21 -8 -30 -17 -30 -32 0 -20 -44 -46 -161 -95 -3 -2
-12 19 -18 45 -7 26 -25 64 -41 84 -20 25 -26 40 -19 50 5 8 9 33 9 56 0 32 5
45 20 53 25 14 26 30 1 30 -28 0 -34 17 -14 37 10 10 26 31 37 47 18 28 18 30
0 43 -36 26 -84 13 -84 -24 0 -15 -12 -36 -30 -53 -27 -25 -30 -34 -30 -90 0
-34 -7 -83 -15 -109 -9 -25 -20 -66 -26 -90 -7 -31 -22 -55 -50 -79 -21 -19
-39 -41 -39 -49 0 -7 -7 -13 -16 -13 -12 0 -14 -9 -12 -42 l3 -43 85 -7 c47
-3 501 -6 1008 -7 707 -1 923 2 920 11 -8 22 -72 47 -148 58 -93 14 -138 28
-169 51 -13 11 -39 19 -57 19 -19 0 -43 5 -54 10 -11 6 -29 14 -40 20 -13 6
-21 6 -26 -1 -9 -15 -56 -1 -72 22 -7 11 -31 28 -53 39 -21 11 -39 27 -39 35
0 8 -8 15 -19 15 -19 0 -31 39 -31 108 0 21 -14 54 -42 96 l-42 63 -39 -61
c-35 -54 -39 -67 -38 -120 l1 -59 -37 7 c-66 10 -110 26 -137 47 l-26 21 50
45 c28 25 66 74 86 109 32 58 83 114 104 114 4 0 27 16 50 35 52 43 75 44 95
5 13 -25 22 -30 51 -30 48 0 68 -12 144 -85 36 -34 110 -91 165 -127 55 -36
117 -79 139 -97 42 -34 81 -40 112 -16 10 8 38 15 62 15 40 0 42 2 42 30 0 23
-10 37 -47 67 -117 96 -202 175 -237 221 -55 72 -92 96 -145 97 -42 0 -45 -2
-53 -32 -15 -59 -74 -35 -101 40 -18 49 65 94 157 84 78 -8 129 -34 231 -117
88 -71 170 -118 183 -105 4 3 -4 24 -16 47 -13 22 -22 42 -19 44 10 10 58 -17
106 -60 28 -25 64 -48 79 -51 103 -22 112 -29 112 -101 0 -38 15 -51 58 -51
42 0 61 -19 107 -106 27 -54 35 -80 35 -123 0 -68 14 -70 88 -14 60 44 100 59
188 67 78 7 124 -8 148 -48 23 -38 40 -33 44 14 4 46 -20 63 -109 79 -35 6
-82 20 -104 31 -79 39 -222 132 -330 214 -77 58 -156 106 -260 157 -82 41
-209 113 -282 160 -73 48 -162 98 -198 111 -81 31 -176 33 -253 5z m-1162
-846 c0 -17 -23 -34 -112 -82 -62 -34 -116 -58 -120 -54 -18 18 10 69 57 104
29 22 59 56 73 84 l24 46 39 -38 c21 -21 39 -48 39 -60z"/>
<path d="M1078 1214 c-32 -17 -39 -38 -40 -120 -3 -113 1 -134 26 -159 21 -21
32 -24 93 -22 l68 2 0 80 0 80 -39 3 c-50 4 -58 -5 -45 -52 12 -43 4 -81 -11
-56 -13 20 -12 171 0 190 7 10 10 11 11 3 1 -7 3 -17 4 -23 1 -5 3 -14 4 -20
0 -5 19 -10 41 -10 36 0 40 2 40 26 0 38 -18 64 -55 80 -43 18 -63 17 -97 -2z"/>
<path d="M2740 1217 c-44 -15 -59 -54 -59 -160 -1 -112 21 -146 97 -147 60 0
91 32 94 97 3 77 -3 156 -14 176 -7 15 -67 49 -80 46 -2 0 -19 -5 -38 -12z
m50 -141 c0 -99 -13 -134 -25 -66 -8 48 3 160 16 160 5 0 9 -42 9 -94z"/>
<path d="M92 1068 l3 -153 38 -3 37 -3 0 53 c0 59 14 51 25 -14 l7 -38 83 0
83 0 6 31 c7 37 30 34 34 -4 3 -24 7 -27 43 -27 l40 0 -7 53 c-4 28 -14 97
-23 152 l-17 100 -56 3 -56 3 -5 -33 c-4 -18 -11 -73 -17 -123 -18 -145 -19
-148 -46 -75 -29 76 -30 105 -4 161 28 62 26 69 -19 69 -38 0 -40 -2 -46 -38
-11 -65 -25 -73 -25 -14 l0 52 -40 0 -41 0 3 -152z m308 -8 c0 -22 -4 -40 -10
-40 -5 0 -10 18 -10 40 0 22 5 40 10 40 6 0 10 -18 10 -40z"/>
<path d="M510 1190 c0 -25 4 -30 25 -30 14 0 25 -2 25 -4 0 -2 -13 -47 -30
-101 -16 -54 -30 -108 -30 -122 0 -23 2 -24 73 -21 l72 3 0 30 c0 25 -4 30
-27 33 -16 2 -28 5 -28 7 0 2 11 35 25 73 14 38 28 90 31 116 l7 46 -72 0 -71
0 0 -30z"/>
<path d="M670 1065 l0 -155 74 0 c106 0 133 34 103 127 -10 31 -12 53 -6 64 5
10 9 32 9 48 0 44 -46 71 -122 71 l-58 0 0 -155z m100 65 c0 -16 -4 -30 -10
-30 -5 0 -10 14 -10 30 0 17 5 30 10 30 6 0 10 -13 10 -30z m2 -102 c5 -29 -1
-58 -12 -58 -10 0 -20 49 -13 67 8 20 20 15 25 -9z"/>
<path d="M880 1065 l0 -155 71 0 70 0 -3 33 c-2 27 -8 33 -30 35 -24 3 -28 8
-28 33 0 24 4 29 25 29 21 0 25 5 25 30 0 25 -4 30 -25 30 -21 0 -25 5 -25 30
0 25 4 30 25 30 21 0 25 5 25 30 l0 30 -65 0 -65 0 0 -155z"/>
<path d="M1256 1204 c-3 -9 -6 -78 -6 -155 l0 -139 45 0 45 0 0 155 0 155 -39
0 c-26 0 -41 -5 -45 -16z"/>
<path d="M1435 1146 c-3 -41 -3 -111 1 -155 7 -80 7 -81 34 -81 36 0 39 10 32
90 -6 83 10 70 23 -18 9 -62 12 -67 35 -67 24 0 26 4 35 75 l10 75 3 -77 3
-78 34 0 35 0 0 155 0 155 -49 0 c-53 0 -61 -8 -61 -63 0 -18 -5 -39 -10 -47
-7 -11 -10 -8 -10 16 0 17 -3 46 -6 63 -6 29 -9 31 -54 31 l-48 0 -7 -74z"/>
<path d="M1735 1208 c-6 -19 -35 -246 -35 -274 0 -21 4 -24 40 -24 38 0 40 2
40 30 0 39 27 41 32 3 3 -24 8 -28 41 -31 44 -4 45 -3 22 151 -25 171 -18 157
-81 157 -35 0 -56 -5 -59 -12z m66 -181 c-17 -17 -21 -3 -14 49 l7 49 9 -44
c6 -29 5 -47 -2 -54z"/>
<path d="M1910 1064 l0 -155 38 3 37 3 5 70 c4 62 6 68 17 48 7 -12 12 -43 10
-70 l-2 -48 38 -3 37 -3 0 58 c0 32 -6 70 -14 84 -11 22 -11 29 0 44 17 23 18
59 3 88 -18 33 -28 37 -101 37 l-68 0 0 -156z m100 66 c0 -16 -4 -30 -10 -30
-5 0 -10 14 -10 30 0 17 5 30 10 30 6 0 10 -13 10 -30z"/>
<path d="M2140 1212 c0 -4 -9 -70 -20 -147 -11 -77 -20 -144 -20 -148 0 -5 19
-7 43 -5 36 3 42 6 43 26 1 12 4 25 7 28 11 11 27 -7 27 -32 0 -21 4 -24 40
-24 22 0 40 3 40 8 0 4 -10 73 -22 155 l-22 147 -58 0 c-32 0 -58 -4 -58 -8z
m70 -147 c0 -25 -4 -45 -10 -45 -11 0 -14 73 -3 83 11 12 13 8 13 -38z"/>
<path d="M2280 1191 c0 -23 5 -30 23 -33 21 -3 22 -7 22 -93 1 -160 0 -155 39
-155 22 0 36 6 40 16 3 9 6 65 6 125 0 101 1 109 19 109 25 0 34 14 26 40 -6
18 -15 20 -91 20 l-84 0 0 -29z"/>
<path d="M2472 1068 l3 -153 38 -3 37 -3 0 60 c0 61 15 90 25 49 3 -13 4 -41
3 -63 -3 -39 -2 -40 33 -43 34 -3 37 -1 43 29 8 40 8 227 0 257 -6 19 -12 23
-43 20 -33 -3 -36 -5 -33 -33 3 -40 -6 -77 -18 -70 -6 3 -10 28 -10 56 l0 49
-40 0 -41 0 3 -152z"/>
<path d="M2900 1064 l0 -155 33 3 c32 3 32 3 31 56 -1 28 2 52 6 52 4 0 13
-24 21 -52 14 -51 15 -53 49 -53 l35 0 0 150 0 150 -32 3 -32 3 -3 -58 -3 -58
-19 58 c-19 54 -21 57 -53 57 l-33 0 0 -156z"/>
</g>
</svg>
